<mxfile host="app.diagrams.net" modified="2021-09-21T19:22:05.652Z" agent="5.0 (Windows NT 6.1; Win64; x64) AppleWebKit/537.36 (KHTML, like Gecko) Chrome/93.0.4577.82 Safari/537.36" etag="07tIJHr10gmTEeFWtrPe" version="15.2.9" type="github">
  <diagram id="VPxYLIXlYcLNxkcpal8V" name="Page-1">
    <mxGraphModel dx="1422" dy="794" grid="1" gridSize="10" guides="1" tooltips="1" connect="1" arrows="1" fold="1" page="1" pageScale="1" pageWidth="827" pageHeight="1169" math="0" shadow="0">
      <root>
        <mxCell id="0" />
        <mxCell id="1" parent="0" />
        <mxCell id="Ev8dWwF09J0jdguzsxNm-3" value="" style="edgeStyle=orthogonalEdgeStyle;rounded=0;orthogonalLoop=1;jettySize=auto;html=1;" edge="1" parent="1" source="Ev8dWwF09J0jdguzsxNm-1" target="Ev8dWwF09J0jdguzsxNm-2">
          <mxGeometry relative="1" as="geometry" />
        </mxCell>
        <mxCell id="Ev8dWwF09J0jdguzsxNm-1" value="Начало" style="ellipse;whiteSpace=wrap;html=1;aspect=fixed;" vertex="1" parent="1">
          <mxGeometry x="360" y="40" width="80" height="80" as="geometry" />
        </mxCell>
        <mxCell id="Ev8dWwF09J0jdguzsxNm-11" value="" style="edgeStyle=orthogonalEdgeStyle;rounded=0;orthogonalLoop=1;jettySize=auto;html=1;" edge="1" parent="1" source="Ev8dWwF09J0jdguzsxNm-2" target="Ev8dWwF09J0jdguzsxNm-4">
          <mxGeometry relative="1" as="geometry" />
        </mxCell>
        <mxCell id="Ev8dWwF09J0jdguzsxNm-2" value="Объявление чисел:&lt;br&gt;A, B, C" style="rounded=1;whiteSpace=wrap;html=1;" vertex="1" parent="1">
          <mxGeometry x="325" y="160" width="150" height="80" as="geometry" />
        </mxCell>
        <mxCell id="Ev8dWwF09J0jdguzsxNm-7" style="edgeStyle=orthogonalEdgeStyle;rounded=0;orthogonalLoop=1;jettySize=auto;html=1;entryX=0.5;entryY=0;entryDx=0;entryDy=0;" edge="1" parent="1" source="Ev8dWwF09J0jdguzsxNm-4" target="Ev8dWwF09J0jdguzsxNm-5">
          <mxGeometry relative="1" as="geometry">
            <Array as="points">
              <mxPoint x="600" y="320" />
            </Array>
          </mxGeometry>
        </mxCell>
        <mxCell id="Ev8dWwF09J0jdguzsxNm-9" style="edgeStyle=orthogonalEdgeStyle;rounded=0;orthogonalLoop=1;jettySize=auto;html=1;entryX=0.5;entryY=0;entryDx=0;entryDy=0;" edge="1" parent="1" source="Ev8dWwF09J0jdguzsxNm-4" target="Ev8dWwF09J0jdguzsxNm-6">
          <mxGeometry relative="1" as="geometry">
            <Array as="points">
              <mxPoint x="200" y="320" />
            </Array>
          </mxGeometry>
        </mxCell>
        <mxCell id="Ev8dWwF09J0jdguzsxNm-4" value="A &amp;gt; B" style="rhombus;whiteSpace=wrap;html=1;" vertex="1" parent="1">
          <mxGeometry x="320" y="280" width="160" height="80" as="geometry" />
        </mxCell>
        <mxCell id="Ev8dWwF09J0jdguzsxNm-16" style="edgeStyle=orthogonalEdgeStyle;rounded=0;orthogonalLoop=1;jettySize=auto;html=1;entryX=0.5;entryY=0;entryDx=0;entryDy=0;" edge="1" parent="1" source="Ev8dWwF09J0jdguzsxNm-5" target="Ev8dWwF09J0jdguzsxNm-13">
          <mxGeometry relative="1" as="geometry">
            <Array as="points">
              <mxPoint x="720" y="400" />
            </Array>
          </mxGeometry>
        </mxCell>
        <mxCell id="Ev8dWwF09J0jdguzsxNm-17" style="edgeStyle=orthogonalEdgeStyle;rounded=0;orthogonalLoop=1;jettySize=auto;html=1;exitX=0;exitY=0.5;exitDx=0;exitDy=0;entryX=0.5;entryY=0;entryDx=0;entryDy=0;" edge="1" parent="1" source="Ev8dWwF09J0jdguzsxNm-5" target="Ev8dWwF09J0jdguzsxNm-12">
          <mxGeometry relative="1" as="geometry" />
        </mxCell>
        <mxCell id="Ev8dWwF09J0jdguzsxNm-5" value="A &amp;gt; C" style="rhombus;whiteSpace=wrap;html=1;" vertex="1" parent="1">
          <mxGeometry x="520" y="360" width="160" height="80" as="geometry" />
        </mxCell>
        <mxCell id="Ev8dWwF09J0jdguzsxNm-18" style="edgeStyle=orthogonalEdgeStyle;rounded=0;orthogonalLoop=1;jettySize=auto;html=1;exitX=1;exitY=0.5;exitDx=0;exitDy=0;entryX=0.5;entryY=0;entryDx=0;entryDy=0;" edge="1" parent="1" source="Ev8dWwF09J0jdguzsxNm-6" target="Ev8dWwF09J0jdguzsxNm-14">
          <mxGeometry relative="1" as="geometry" />
        </mxCell>
        <mxCell id="Ev8dWwF09J0jdguzsxNm-19" style="edgeStyle=orthogonalEdgeStyle;rounded=0;orthogonalLoop=1;jettySize=auto;html=1;exitX=0;exitY=0.5;exitDx=0;exitDy=0;entryX=0.5;entryY=0;entryDx=0;entryDy=0;" edge="1" parent="1" source="Ev8dWwF09J0jdguzsxNm-6" target="Ev8dWwF09J0jdguzsxNm-15">
          <mxGeometry relative="1" as="geometry" />
        </mxCell>
        <mxCell id="Ev8dWwF09J0jdguzsxNm-6" value="B &amp;gt; C" style="rhombus;whiteSpace=wrap;html=1;" vertex="1" parent="1">
          <mxGeometry x="120" y="360" width="160" height="80" as="geometry" />
        </mxCell>
        <mxCell id="Ev8dWwF09J0jdguzsxNm-8" value="true" style="text;html=1;align=center;verticalAlign=middle;resizable=0;points=[];autosize=1;strokeColor=none;fillColor=none;" vertex="1" parent="1">
          <mxGeometry x="520" y="300" width="40" height="20" as="geometry" />
        </mxCell>
        <mxCell id="Ev8dWwF09J0jdguzsxNm-10" value="false" style="text;html=1;align=center;verticalAlign=middle;resizable=0;points=[];autosize=1;strokeColor=none;fillColor=none;" vertex="1" parent="1">
          <mxGeometry x="240" y="300" width="40" height="20" as="geometry" />
        </mxCell>
        <mxCell id="Ev8dWwF09J0jdguzsxNm-28" style="edgeStyle=orthogonalEdgeStyle;rounded=0;orthogonalLoop=1;jettySize=auto;html=1;exitX=0.5;exitY=1;exitDx=0;exitDy=0;entryX=0.5;entryY=0;entryDx=0;entryDy=0;" edge="1" parent="1" source="Ev8dWwF09J0jdguzsxNm-12" target="Ev8dWwF09J0jdguzsxNm-24">
          <mxGeometry relative="1" as="geometry">
            <Array as="points">
              <mxPoint x="480" y="560" />
              <mxPoint x="400" y="560" />
            </Array>
          </mxGeometry>
        </mxCell>
        <mxCell id="Ev8dWwF09J0jdguzsxNm-12" value="Печатаем &quot;С&quot;" style="rounded=1;whiteSpace=wrap;html=1;" vertex="1" parent="1">
          <mxGeometry x="420" y="470" width="120" height="60" as="geometry" />
        </mxCell>
        <mxCell id="Ev8dWwF09J0jdguzsxNm-29" style="edgeStyle=orthogonalEdgeStyle;rounded=0;orthogonalLoop=1;jettySize=auto;html=1;entryX=0.5;entryY=0;entryDx=0;entryDy=0;" edge="1" parent="1" source="Ev8dWwF09J0jdguzsxNm-13" target="Ev8dWwF09J0jdguzsxNm-24">
          <mxGeometry relative="1" as="geometry">
            <Array as="points">
              <mxPoint x="720" y="560" />
              <mxPoint x="400" y="560" />
            </Array>
          </mxGeometry>
        </mxCell>
        <mxCell id="Ev8dWwF09J0jdguzsxNm-13" value="Печатаем &quot;A&quot;" style="rounded=1;whiteSpace=wrap;html=1;" vertex="1" parent="1">
          <mxGeometry x="660" y="470" width="120" height="60" as="geometry" />
        </mxCell>
        <mxCell id="Ev8dWwF09J0jdguzsxNm-27" style="edgeStyle=orthogonalEdgeStyle;rounded=0;orthogonalLoop=1;jettySize=auto;html=1;exitX=0.5;exitY=1;exitDx=0;exitDy=0;entryX=0.5;entryY=0;entryDx=0;entryDy=0;" edge="1" parent="1" source="Ev8dWwF09J0jdguzsxNm-14" target="Ev8dWwF09J0jdguzsxNm-24">
          <mxGeometry relative="1" as="geometry">
            <Array as="points">
              <mxPoint x="320" y="560" />
              <mxPoint x="400" y="560" />
            </Array>
          </mxGeometry>
        </mxCell>
        <mxCell id="Ev8dWwF09J0jdguzsxNm-14" value="Печатаем &quot;B&quot;" style="rounded=1;whiteSpace=wrap;html=1;" vertex="1" parent="1">
          <mxGeometry x="260" y="470" width="120" height="60" as="geometry" />
        </mxCell>
        <mxCell id="Ev8dWwF09J0jdguzsxNm-25" style="edgeStyle=orthogonalEdgeStyle;rounded=0;orthogonalLoop=1;jettySize=auto;html=1;entryX=0.5;entryY=0;entryDx=0;entryDy=0;" edge="1" parent="1" source="Ev8dWwF09J0jdguzsxNm-15" target="Ev8dWwF09J0jdguzsxNm-24">
          <mxGeometry relative="1" as="geometry">
            <Array as="points">
              <mxPoint x="80" y="560" />
              <mxPoint x="400" y="560" />
            </Array>
          </mxGeometry>
        </mxCell>
        <mxCell id="Ev8dWwF09J0jdguzsxNm-15" value="Печатаем &quot;C&quot;" style="rounded=1;whiteSpace=wrap;html=1;" vertex="1" parent="1">
          <mxGeometry x="20" y="470" width="120" height="60" as="geometry" />
        </mxCell>
        <mxCell id="Ev8dWwF09J0jdguzsxNm-20" value="true" style="text;html=1;align=center;verticalAlign=middle;resizable=0;points=[];autosize=1;strokeColor=none;fillColor=none;" vertex="1" parent="1">
          <mxGeometry x="680" y="380" width="40" height="20" as="geometry" />
        </mxCell>
        <mxCell id="Ev8dWwF09J0jdguzsxNm-21" value="false" style="text;html=1;align=center;verticalAlign=middle;resizable=0;points=[];autosize=1;strokeColor=none;fillColor=none;" vertex="1" parent="1">
          <mxGeometry x="480" y="380" width="40" height="20" as="geometry" />
        </mxCell>
        <mxCell id="Ev8dWwF09J0jdguzsxNm-22" value="true" style="text;html=1;align=center;verticalAlign=middle;resizable=0;points=[];autosize=1;strokeColor=none;fillColor=none;" vertex="1" parent="1">
          <mxGeometry x="280" y="380" width="40" height="20" as="geometry" />
        </mxCell>
        <mxCell id="Ev8dWwF09J0jdguzsxNm-23" value="false" style="text;html=1;align=center;verticalAlign=middle;resizable=0;points=[];autosize=1;strokeColor=none;fillColor=none;" vertex="1" parent="1">
          <mxGeometry x="80" y="380" width="40" height="20" as="geometry" />
        </mxCell>
        <mxCell id="Ev8dWwF09J0jdguzsxNm-24" value="Конец" style="ellipse;whiteSpace=wrap;html=1;aspect=fixed;" vertex="1" parent="1">
          <mxGeometry x="360" y="600" width="80" height="80" as="geometry" />
        </mxCell>
      </root>
    </mxGraphModel>
  </diagram>
</mxfile>
